<?xml version="1.0" encoding="utf-8"?>
<!-- Generator: Adobe Illustrator 22.1.0, SVG Export Plug-In . SVG Version: 6.00 Build 0)  -->
<svg version="1.1" id="a8904fed-7223-4ff2-9071-b444910320a0"
	 xmlns="http://www.w3.org/2000/svg" xmlns:xlink="http://www.w3.org/1999/xlink" x="0px" y="0px" viewBox="0 0 1137 518.1"
	 style="enable-background:new 0 0 1137 518.1;" xml:space="preserve">
<style type="text/css">
	.st0{opacity:0.1;fill:#6C63FF;enable-background:new    ;}
	.st1{fill:#6C63FF;}
	.st2{fill:#444053;}
	.st3{fill:#D5D6DB;}
	.st4{opacity:0.1;enable-background:new    ;}
	.st5{opacity:0.3;fill:#FFFFFF;enable-background:new    ;}
	.st6{fill:#3A3768;}
	.st7{opacity:0.45;fill:#FFFFFF;enable-background:new    ;}
	.st8{fill:url(#SVGID_1_);}
	.st9{fill:#BE6F72;}
	.st10{fill:#3E373A;}
	.st11{fill:#4B4B5B;}
	.st12{opacity:2.000000e-02;enable-background:new    ;}
	.st13{fill:#E7C7CA;}
	.st14{fill:#C3C7D9;}
	.st15{opacity:0.1;}
	.st16{opacity:0.1;fill:none;stroke:#000000;stroke-width:0.6356;stroke-miterlimit:10;enable-background:new    ;}
	.st17{fill:#FFD037;}
	.st18{fill:#65617D;}
	.st19{fill:#9D9CB5;}
</style>
<title>best place</title>
<path class="st0" d="M621.7,88c-41.1-1.4-80.3-14.7-117.7-29.2s-74.5-30.6-114.6-38.3c-25.8-5-55.4-5.7-76.2,8.2
	c-20,13.3-26.5,36.3-30,57.7c-2.6,16.1-4.2,32.9,3,48c5,10.4,13.8,19.2,19.9,29.2c21.3,34.8,6.2,77.7-16.8,111.6
	c-10.8,15.9-23.4,31.1-31.7,48.1s-12.2,36.4-4.9,53.7c7.2,17.2,24.5,30,43.2,39.1c37.9,18.4,82.6,23.7,126.2,26.6
	c96.5,6.6,193.5,3.7,290.3,0.9c35.8-1.1,71.8-2.1,107-7.7c19.6-3.1,39.8-8,54-19.7c18-15,22.5-40.3,10.4-59
	c-20.3-31.5-76.3-39.3-90.5-73c-7.8-18.6,0.2-39.3,11.5-56.5c24.3-37,65-69.4,67.2-111.7c1.5-29-18.1-58.1-48.4-71.8
	c-31.7-14.4-75.8-12.6-99.2,11.2C700.4,79.8,658,89.2,621.7,88z"/>
<polygon class="st1" points="517.2,439.5 299.7,438.4 278.1,387.7 354.5,382.2 341.2,326.6 492.3,307 347.6,256.7 360.4,253.6 
	593.1,291.6 580.3,378.4 562,426 "/>
<path class="st1" d="M303,417.2c0,0,13.3-2.1,21.4,7.3c0,0-5.9,4.6-18.5-1.8L303,417.2z"/>
<path class="st1" d="M301.6,417c0,0-8.5,10.5-4.3,22.1c0,0,6.9-2.8,7.7-16.9L301.6,417z"/>
<path class="st1" d="M294,399.7c0,0,5.3-9.8,26.7,3.9c0,0-2.8,6.6-12.3,6.1C298.9,409.2,296.5,404.9,294,399.7z"/>
<path class="st1" d="M292.6,399c0,0-11.1-1.3-12.2,24.1c0,0,7,1.5,12-6.6S295.4,404,292.6,399z"/>
<path class="st1" d="M286.1,378.8c0,0,6.2-17.3,28.8-5c0,0-5.2,15.8-26.5,10.9L286.1,378.8z"/>
<path class="st1" d="M279.2,353c0,0,11.7-17.4,32.6-1.3c0,0-7.3,16.4-30.8,7.5L279.2,353z"/>
<path class="st1" d="M276.7,328.5c0,0,13.7-16,34.3,0c0,0-13,14.1-34.3,4.1V328.5z"/>
<path class="st1" d="M274.6,304.6c0,0,13.9-16.7,33.6-0.9c0,0-15.7,14.8-33.6,4.8V304.6z"/>
<path class="st1" d="M275.8,283.4c0,0,14.6-21.5,33.1-6.9c0,0-15.7,18.5-33.1,11V283.4z"/>
<path class="st1" d="M279.2,258.7c0,0,15.5-21.4,33.5-5c0,0-18.3,18.5-33.5,8.9V258.7z"/>
<path class="st1" d="M284.3,236.6c0,0,18.3-20.1,34.3-12.1c0,0-19.1,21.3-35.1,17.4L284.3,236.6z"/>
<path class="st1" d="M290.8,215.6c0,0,21.2-24.6,33.5-16.4c0,0-15.6,19.1-35,21L290.8,215.6z"/>
<path class="st1" d="M300,191.3c0,0,18.5-20.1,32-15.1c0,0-15.8,20.8-34.5,21.4L300,191.3z"/>
<path class="st1" d="M308.4,168.6c0,0,20.5-19.2,29.4-15.8c0,0-14.8,21.4-30.3,20.1L308.4,168.6z"/>
<path class="st1" d="M316.6,147.6c0,0,17.6-23,27.2-21.2c0,0-10.7,20.5-27.2,23.5V147.6z"/>
<path class="st1" d="M325.4,119.2c0,0,15.6-17.6,24-17.6c0,0-12.3,23.5-24.6,23.3L325.4,119.2z"/>
<path class="st1" d="M330.7,100.4l15-36.7c0,0,0.7,33.1-17,43.5L330.7,100.4z"/>
<path class="st1" d="M336.8,60c0,0,2.5-30.6,0.9-33.1c0,0,10.8,25.5-1,46.6L336.8,60z"/>
<path class="st1" d="M285.5,378.4c0,0-15.6-9.7-25.7,14c0,0,13.9,9.2,27.5-8L285.5,378.4z"/>
<path class="st1" d="M278.7,352c0,0-19.1-8.7-28.4,16c0,0,14.8,10.2,30.2-9.7L278.7,352z"/>
<path class="st1" d="M275.8,329.9c0,0-13.7-16-34.3,0c0,0,13,14.1,34.3,4.1V329.9z"/>
<path class="st1" d="M274.1,304.6c0,0-13.9-16.7-33.6-0.9c0,0,15.7,14.8,33.6,4.8V304.6z"/>
<path class="st1" d="M275.8,284c0,0-9.7-24.1-30.9-13.7c0,0,11.4,21.4,30,17.8L275.8,284z"/>
<path class="st1" d="M280.4,258.6c0,0-9.7-24.5-31.1-13.2c0,0,13.1,22.5,30.2,17L280.4,258.6z"/>
<path class="st1" d="M286.4,236.7c0,0-3.8-26.9-21.6-29.3c0,0,3.8,28.4,19.2,34.2L286.4,236.7z"/>
<path class="st1" d="M291.2,215.7c0,0-1.5-32.4-16.2-33.5c0,0,0.5,24.6,14.5,38.1L291.2,215.7z"/>
<path class="st1" d="M301.5,190.4c0,0-4.4-27-18.4-30.2c0,0,1.7,26.1,17,36.9L301.5,190.4z"/>
<path class="st1" d="M310,168.8c0,0-0.1-28.1-8.7-32.2c0,0-5.3,25.4,6.2,35.8L310,168.8z"/>
<path class="st1" d="M317.2,147.2c0,0-1.2-28.9-10.1-33c0,0-3,22.9,8.8,34.9L317.2,147.2z"/>
<path class="st1" d="M326.7,121.6c0,0-0.1-23.5-6.4-29c0,0-6.3,25.8,3.1,33.8L326.7,121.6z"/>
<path class="st1" d="M330,99.2l-6.2-39.1c0,0-8.4,32.1,6.5,46.2L330,99.2z"/>
<path class="st1" d="M331.2,60.3c0,0-15.8-26.3-15.5-29.2c0,0,1.7,27.6,21.6,41.3L331.2,60.3z"/>
<path class="st1" d="M333,52.6c0,0-14.9-37.4-21.7-40.4c0,0,21.4,10.9,23,39.3L333,52.6z"/>
<path class="st2" d="M324.7,125.2l-1-0.3c12.6-41.1,15.8-67.4,8.9-73.9l0.7-0.8C340.6,57.1,337.6,83.1,324.7,125.2z"/>
<path class="st2" d="M290,221.5l-1.5-0.5c1.3-3.8,2.8-7.6,4.3-11.4c13.2-32.8,24.4-63.4,31.6-86.8l1.3-0.6
	c-7.2,23.5-18.2,55.2-31.4,88.1C292.8,214,291.3,217.8,290,221.5z"/>
<path class="st2" d="M321.8,448c-0.2-0.2-20.6-23.2-34.9-62.6c-8.4-23-13-47.2-13.8-71.7c-1-30.6,5.4-64.7,16.4-95.8l1.2,1.4
	c-24.7,69.6-14.9,129.3-1.9,165.2c14.1,39,34.3,61.7,34.5,62L321.8,448z"/>
<path class="st3" d="M641.3,399.1c0,0-14.4,17.6-3,44.2l-115,49.9l-11,2.3l-5.1-22.2l3.4-28.1v-15.3L641.3,399.1z"/>
<polygon class="st1" points="278.1,387.7 437.3,358.7 648.3,392.3 517.2,439.5 "/>
<polygon class="st1" points="278.1,387.7 437.3,358.7 648.3,392.3 517.2,439.5 "/>
<path class="st1" d="M278.1,387.7c0,0-14.9,28.2,2.3,54.3l236.1,51.2c0,0-14.7-22.5,0.8-53.7L278.1,387.7z"/>
<path class="st4" d="M278.1,387.7c0,0-14.9,28.2,2.3,54.3l236.1,51.2c0,0-14.7-22.5,0.8-53.7L278.1,387.7z"/>
<path class="st4" d="M285.1,397.5c0,0-8.5,20.6,0,34"/>
<path class="st1" d="M516.4,493.2l131.8-56.2c0,0,7.4,1.6,2.6,7c-4.8,5.4-131.9,54.7-131.9,54.7L280.3,442L516.4,493.2z"/>
<path class="st4" d="M516.4,493.2l131.8-56.2c0,0,7.4,1.6,2.6,7c-4.8,5.4-131.9,54.7-131.9,54.7L280.3,442L516.4,493.2z"/>
<path class="st4" d="M505.6,445.2c0,0-12.7,15.3,0,38.1"/>
<rect x="508.7" y="454.4" transform="matrix(0.9486 -0.3165 0.3165 0.9486 -116.2161 193.8805)" class="st4" width="60.1" height="0.6"/>
<rect x="507.9" y="456" transform="matrix(0.9347 -0.3554 0.3554 0.9347 -126.6404 223.3246)" class="st4" width="73.2" height="0.6"/>
<rect x="507.5" y="459" transform="matrix(0.9255 -0.3788 0.3788 0.9255 -133.0027 242.5464)" class="st4" width="84.9" height="0.6"/>
<rect x="507.2" y="460.3" transform="matrix(0.9113 -0.4117 0.4117 0.9113 -140.2975 269.7684)" class="st4" width="97.7" height="0.6"/>
<rect x="507.8" y="461.6" transform="matrix(0.9163 -0.4005 0.4005 0.9163 -138.0063 263.4424)" class="st4" width="106.9" height="0.6"/>
<rect x="508.5" y="462" transform="matrix(0.918 -0.3965 0.3965 0.918 -136.3708 264.8728)" class="st4" width="127.9" height="0.6"/>
<polygon class="st5" points="337.2,390.8 449.1,367.3 517.2,380.3 425.6,409.9 "/>
<path class="st1" d="M648.3,392.3c0,0,5.8,2.3,2.4,5.9c-3.4,3.6-133.5,41.2-133.5,41.2L648.3,392.3z"/>
<path class="st3" d="M704.4,338c0,0-14.4,17.6-3,44.2l-115,49.9l-11,2.3l-5.1-22.2l3.5-28.1v-15.4L704.4,338z"/>
<polygon class="st6" points="341.2,326.6 500.4,297.6 711.4,331.2 580.3,378.4 "/>
<path class="st6" d="M341.1,326.6c0,0-14.9,28.2,2.3,54.3L579.5,432c0,0-14.6-22.5,0.8-53.7L341.1,326.6z"/>
<path class="st4" d="M341.1,326.6c0,0-14.9,28.2,2.3,54.3L579.5,432c0,0-14.6-22.5,0.8-53.7l-74.7-16.2L341.1,326.6z"/>
<path class="st4" d="M348.2,336.4c0,0-8.5,20.6,0,34"/>
<path class="st6" d="M579.5,432l131.8-56.2c0,0,7.4,1.6,2.6,7c-4.8,5.4-131.9,54.7-131.9,54.7l-238.7-56.6L579.5,432z"/>
<path class="st4" d="M579.5,432l131.8-56.2c0,0,7.4,1.6,2.6,7c-4.8,5.4-131.9,54.7-131.9,54.7l-238.7-56.6L579.5,432z"/>
<path class="st4" d="M568.7,384c0,0-12.7,15.3,0,38.1"/>
<rect x="571.8" y="393.3" transform="matrix(0.9486 -0.3165 0.3165 0.9486 -93.6284 210.7119)" class="st4" width="60.1" height="0.6"/>
<rect x="571" y="394.9" transform="matrix(0.9347 -0.3554 0.3554 0.9347 -100.7928 241.7677)" class="st4" width="73.2" height="0.6"/>
<rect x="570.6" y="397.8" transform="matrix(0.9255 -0.3788 0.3788 0.9255 -105.1412 261.8969)" class="st4" width="84.9" height="0.6"/>
<rect x="570.4" y="399.1" transform="matrix(0.9113 -0.4117 0.4117 0.9113 -109.5342 290.3313)" class="st4" width="97.7" height="0.6"/>
<rect x="570.9" y="400.4" transform="matrix(0.9163 -0.4005 0.4005 0.9163 -108.2361 283.5996)" class="st4" width="106.9" height="0.6"/>
<rect x="571.6" y="400.8" transform="matrix(0.918 -0.3965 0.3965 0.918 -106.9547 284.8858)" class="st4" width="127.9" height="0.6"/>
<polygon class="st7" points="400.3,329.7 512.2,306.2 580.3,319.2 488.7,348.8 "/>
<path class="st6" d="M711.4,331.2c0,0,5.8,2.3,2.4,5.9c-3.4,3.6-133.4,41.2-133.4,41.2L711.4,331.2z"/>
<path class="st3" d="M710.4,268c0,0-14.4,31.6-3,58.2l-115,35.9l-11,2.3l-5.1-22.2l3.4-28.1v-15.4L710.4,268z"/>
<polygon class="st1" points="347.2,256.7 506.4,227.6 717.4,261.2 586.3,308.4 "/>
<path class="st1" d="M347.2,256.7c0,0-14.9,28.2,2.2,54.3l236.1,51.2c0,0-14.7-22.5,0.8-53.7L347.2,256.7z"/>
<path class="st4" d="M347.2,256.7c0,0-14.9,28.2,2.2,54.3l236.1,51.2c0,0-14.7-22.5,0.8-53.7L347.2,256.7z"/>
<path class="st4" d="M354.2,266.4c0,0-8.5,20.6,0,34"/>
<path class="st1" d="M585.5,362.1l131.8-42.3c0,0,7.4,1.6,2.6,7c-4.8,5.4-131.9,40.7-131.9,40.7l-238.7-56.6L585.5,362.1z"/>
<path class="st4" d="M585.5,362.1l131.8-42.3c0,0,7.4,1.6,2.6,7c-4.8,5.4-131.9,40.7-131.9,40.7l-238.7-56.6L585.5,362.1z"/>
<path class="st4" d="M574.7,314.1c0,0-12.7,15.3,0,38.1"/>
<rect x="577.8" y="323.3" transform="matrix(0.9486 -0.3165 0.3165 0.9486 -71.1877 209.0167)" class="st4" width="60.1" height="0.6"/>
<rect x="577" y="325" transform="matrix(0.9347 -0.3554 0.3554 0.9347 -75.5458 239.333)" class="st4" width="73.2" height="0.6"/>
<rect x="576.6" y="327.9" transform="matrix(0.9255 -0.3788 0.3788 0.9255 -78.2057 258.9551)" class="st4" width="84.9" height="0.6"/>
<rect x="576.4" y="329.2" transform="matrix(0.9113 -0.4117 0.4117 0.9113 -80.2129 286.6006)" class="st4" width="97.7" height="0.6"/>
<rect x="576.9" y="330.5" transform="matrix(0.9163 -0.4005 0.4005 0.9163 -79.7275 280.1507)" class="st4" width="106.9" height="0.6"/>
<rect x="577.6" y="330.9" transform="matrix(0.918 -0.3965 0.3965 0.918 -78.7381 281.534)" class="st4" width="127.9" height="0.6"/>
<polygon class="st5" points="406.3,259.8 518.2,236.2 586.3,249.3 494.7,278.8 "/>
<path class="st1" d="M717.4,261.2c0,0,5.8,2.3,2.4,5.9c-3.4,3.6-133.4,41.2-133.4,41.2L717.4,261.2z"/>
<path class="st1" d="M437.8,68.3c0,0-24.2-1.5-21.3,15.5c0,0-0.6,3,2.1,4.4c0,0,0-1.3,2.5-0.8c0.9,0.1,1.8,0.2,2.6,0.1
	c1.2-0.1,2.3-0.5,3.2-1.3l0,0c0,0,6.8-2.8,9.4-13.9c0,0,2-2.4,1.9-3l-4.1,1.7c0,0,1.4,2.9,0.3,5.4c0,0-0.1-5.3-0.9-5.2
	c-0.2,0-2.1,1-2.1,1s2.4,5.1,0.6,8.9c0,0,0.7-6.3-1.3-8.5l-2.9,1.7c0,0,2.8,5.3,0.9,9.6c0,0,0.5-6.6-1.5-9.2l-2.6,2
	c0,0,2.6,5.2,1,8.8c0,0-0.2-7.7-1.6-8.3c0,0-2.3,2-2.6,2.8c0,0,1.8,3.8,0.7,5.8c0,0-0.7-5.1-1.3-5.2c0,0-2.3,3.4-2.5,5.7
	c0.1-2.2,0.8-4.2,2-6.1c-1.3,0.2-2.5,0.9-3.5,1.8c0,0,0.3-2.4,4-2.6c0,0,1.9-2.6,2.4-2.7c0,0-3.7-0.3-5.9,0.7c0,0,2-2.3,6.6-1.3
	l2.5-2.1c0,0-4.8-0.6-6.9,0.1c0,0,2.4-2,7.6-0.5l2.8-1.7c0,0-4.1-0.9-6.6-0.6c0,0,2.6-1.4,7.4,0.1l2-0.9c0,0-3-0.6-3.9-0.7
	c-0.9-0.1-0.9-0.3-0.9-0.3c1.9-0.3,3.9-0.1,5.7,0.6C433.5,70.1,437.8,68.6,437.8,68.3z"/>
<path class="st0" d="M777.5,138c0,0-24.2-1.5-21.3,15.5c0,0-0.6,3,2.1,4.4c0,0,0-1.3,2.5-0.8c0.9,0.1,1.8,0.2,2.6,0.1
	c1.2-0.1,2.3-0.6,3.2-1.3l0,0c0,0,6.8-2.8,9.4-13.9c0,0,2-2.4,1.9-3l-4.1,1.7c0,0,1.4,2.9,0.3,5.4c0,0-0.1-5.3-0.9-5.2
	c-0.2,0-2.1,1-2.1,1s2.4,5.1,0.6,8.9c0,0,0.7-6.3-1.3-8.5l-2.9,1.7c0,0,2.8,5.3,0.9,9.6c0,0,0.5-6.6-1.5-9.2l-2.6,2
	c0,0,2.6,5.2,1,8.8c0,0-0.2-7.7-1.6-8.3c0,0-2.3,2-2.6,2.8c0,0,1.8,3.8,0.7,5.8c0,0-0.7-5.1-1.3-5.2c0,0-2.3,3.4-2.5,5.7
	c0.1-2.2,0.8-4.2,2-6.1c-1.3,0.2-2.5,0.9-3.5,1.8c0,0,0.4-2.4,4-2.6c0,0,1.9-2.6,2.4-2.7c0,0-3.7-0.3-5.9,0.7c0,0,2-2.3,6.6-1.3
	l2.5-2.1c0,0-4.8-0.6-6.9,0.1c0,0,2.4-2,7.6-0.5l2.8-1.7c0,0-4.1-0.9-6.6-0.6c0,0,2.6-1.4,7.4,0.1l2-0.9c0,0-3-0.6-3.9-0.7
	c-0.9-0.1-0.9-0.3-0.9-0.3c1.9-0.3,3.9-0.1,5.7,0.6C773.3,139.8,777.6,138.2,777.5,138z"/>
<path class="st0" d="M478.4,173c0,0-10.5-21.8-23.9-11.1c0,0-2.9,1-2.8,4c0,0,1.1-0.6,1.9,1.8c0.3,0.8,0.7,1.6,1.2,2.4
	c0.7,1,1.6,1.8,2.7,2.2l0,0c0,0,5.8,4.6,16.8,1.4c0,0,3.1,0.5,3.6,0.2l-3.5-2.7c0,0-1.9,2.7-4.6,2.9c0,0,4.6-2.7,4.1-3.3
	c-0.1-0.1-1.9-1.4-1.9-1.4s-3.3,4.6-7.4,4.8c0,0,5.8-2.5,6.7-5.3l-2.9-1.7c0,0-3.3,5-8,5.5c0,0,6-2.8,7.3-5.8l-3-1.3
	c0,0-3.3,4.8-7.2,5.2c0,0,6.6-3.9,6.5-5.4c0,0-2.9-1-3.8-0.9c0,0-2.4,3.4-4.7,3.4c0,0,4.2-3.1,3.9-3.6c0,0-4.1-0.3-6.2,0.6
	c1.9-1,4.1-1.4,6.2-1.3c-0.9-1-2-1.8-3.3-2.2c0,0,2.3-0.9,4.3,2.2c0,0,3.2,0.4,3.6,0.7c0,0-1.5-3.3-3.5-4.8c0,0,2.9,0.6,4.3,5.1
	l3.1,1.2c0,0-1.8-4.5-3.4-6c0,0,2.9,1.1,4.2,6.4l2.8,1.6c0,0-1.2-4-2.7-6c0,0,2.5,1.6,3.5,6.5l1.8,1.3c0,0-1-2.9-1.3-3.7
	c-0.3-0.8-0.2-1-0.2-1c1.2,1.5,2,3.3,2.2,5.2C474.8,170.3,478.2,173.2,478.4,173z"/>
<path class="st0" d="M722.3,107.1c0,0-10.5-21.8-23.9-11.1c0,0-2.9,1-2.8,4c0,0,1.1-0.6,1.9,1.8c0.3,0.8,0.7,1.6,1.2,2.4
	c0.6,1,1.6,1.8,2.7,2.2l0,0c0,0,5.8,4.6,16.8,1.5c0,0,3.1,0.5,3.6,0.2l-3.5-2.7c0,0-1.9,2.7-4.6,2.9c0,0,4.5-2.7,4.1-3.3
	c-0.1-0.1-1.9-1.4-1.9-1.4s-3.3,4.6-7.4,4.8c0,0,5.9-2.5,6.8-5.3l-2.9-1.7c0,0-3.3,5-8,5.5c0,0,6-2.8,7.3-5.8l-3-1.3
	c0,0-3.3,4.8-7.2,5.2c0,0,6.6-3.9,6.5-5.4c0,0-2.9-1-3.7-0.9c0,0-2.4,3.4-4.7,3.4c0,0,4.2-3.1,3.9-3.6c0,0-4.1-0.3-6.2,0.6
	c1.9-1,4.1-1.4,6.2-1.3c-0.9-1-2-1.8-3.3-2.2c0,0,2.3-0.9,4.3,2.2c0,0,3.2,0.4,3.6,0.7c0,0-1.5-3.3-3.5-4.8c0,0,2.9,0.6,4.3,5.1
	l3.1,1.2c0,0-1.8-4.5-3.4-6c0,0,2.9,1.1,4.2,6.4l2.8,1.6c0,0-1.2-4-2.7-6c0,0,2.5,1.6,3.5,6.5l1.8,1.3c0,0-0.9-2.9-1.3-3.7
	s-0.2-1-0.2-1c1.2,1.5,2,3.3,2.2,5.2C718.7,104.4,722.1,107.3,722.3,107.1z"/>
<path class="st0" d="M756,215.1c0,0-10.5-21.8-23.9-11.1c0,0-2.9,1-2.8,4c0,0,1.1-0.6,1.9,1.8c0.3,0.8,0.7,1.6,1.2,2.4
	c0.6,1,1.6,1.8,2.7,2.2l0,0c0,0,5.8,4.6,16.8,1.5c0,0,3.1,0.5,3.6,0.2l-3.5-2.7c0,0-1.9,2.7-4.6,2.9c0,0,4.5-2.7,4.1-3.3
	c-0.1-0.1-1.9-1.4-1.9-1.4s-3.3,4.6-7.4,4.8c0,0,5.9-2.5,6.8-5.3l-2.9-1.7c0,0-3.3,5-8,5.5c0,0,6-2.8,7.3-5.8l-3-1.3
	c0,0-3.3,4.8-7.2,5.2c0,0,6.6-3.9,6.5-5.4c0,0-2.9-1-3.8-0.9c0,0-2.4,3.4-4.7,3.4c0,0,4.2-3.1,3.9-3.6c0,0-4.1-0.3-6.2,0.6
	c1.9-1,4.1-1.4,6.3-1.3c-0.9-1-2-1.8-3.3-2.2c0,0,2.3-0.9,4.3,2.2c0,0,3.2,0.4,3.6,0.7c0,0-1.5-3.3-3.5-4.8c0,0,2.9,0.6,4.3,5.1
	l3.1,1.2c0,0-1.8-4.5-3.4-6c0,0,2.9,1.1,4.2,6.4l2.8,1.6c0,0-1.2-4-2.7-6c0,0,2.5,1.6,3.5,6.5l1.8,1.3c0,0-1-2.9-1.3-3.7
	c-0.3-0.8-0.2-1-0.2-1c1.2,1.5,2,3.3,2.2,5.2C752.3,212.3,755.8,215.2,756,215.1z"/>
<ellipse class="st0" cx="368.8" cy="497.4" rx="14.6" ry="1.6"/>
<ellipse class="st0" cx="273" cy="469.6" rx="14.6" ry="1.6"/>
<ellipse class="st0" cx="441.8" cy="515.8" rx="14.6" ry="1.6"/>
<ellipse class="st0" cx="816" cy="475.7" rx="14.6" ry="1.6"/>
<ellipse class="st0" cx="694.4" cy="467.7" rx="14.6" ry="1.6"/>
<ellipse class="st0" cx="615.7" cy="505.1" rx="17.3" ry="3"/>
<path class="st1" d="M623.4,475.2c0,0-24.1,12.4-11.6,27.1c0,0,1.2,3.2,4.6,3c0,0-0.7-1.2,1.9-2.2c0.9-0.4,1.8-0.8,2.6-1.4
	c1.1-0.8,1.9-1.8,2.3-3.1l0,0c0,0,4.9-6.6,1.1-18.8c0,0,0.5-3.4,0.1-4l-2.9,4c0,0,3,2,3.4,5c0,0-3.2-5-3.8-4.4
	c-0.1,0.1-1.4,2.2-1.4,2.2s5.2,3.6,5.6,8.2c0,0-2.9-6.5-6.1-7.4l-1.8,3.3c0,0,5.7,3.5,6.4,8.7c0,0-3.3-6.6-6.7-8l-1.3,3.4
	c0,0,5.5,3.5,6,7.9c0,0-4.6-7.3-6.3-7.1c0,0-1,3.2-0.9,4.2c0,0,3.9,2.6,4,5.2c0,0-3.6-4.5-4.2-4.2c0,0-0.2,4.6,0.9,6.9
	c0,0-1.9-3.4-1.6-6.9c-1.1,1-1.9,2.3-2.3,3.7c0,0-1-2.5,2.4-4.8c0,0,0.3-3.6,0.7-4c0,0-3.7,1.8-5.3,4c0,0,0.6-3.3,5.6-4.9l1.3-3.5
	c0,0-5,2.1-6.6,4c0,0,1.1-3.3,6.9-4.8l1.7-3.2c0,0-4.4,1.5-6.6,3.2c0,0,1.7-2.8,7.2-4.1l1.4-2c0,0-3.2,1.2-4.1,1.6
	c-0.9,0.4-1.1,0.2-1.1,0.2c1.6-1.4,3.7-2.3,5.8-2.6C620.5,479.4,623.7,475.4,623.4,475.2z"/>
<linearGradient id="SVGID_1_" gradientUnits="userSpaceOnUse" x1="676.4688" y1="154.9704" x2="676.4688" y2="473.9525" gradientTransform="matrix(1 0 0 -1 -88.58 474.58)">
	<stop  offset="0" style="stop-color:#808080;stop-opacity:0.25"/>
	<stop  offset="0.54" style="stop-color:#808080;stop-opacity:0.12"/>
	<stop  offset="1" style="stop-color:#808080;stop-opacity:0.1"/>
</linearGradient>
<path class="st8" d="M694.9,240.4c-4.2-11.3-27-12.4-37-9.5c-7.1,2.1-21.9,4.4-29.9,5.5l-0.5-0.5c1-0.3,1.1-1.1,0.9-2.2
	c-0.1-1.5-0.1-2.9,0.1-4.4c4.9,1.5,9.2-2.1,9.2-2.1l0,0c5.7-2.5,4.2-13.4,5.3-16.4c0.8-2.2,1.7-15.3,2.1-21.9h0.1l0-2.2
	c0.1-0.9,0.1-1.5,0.1-1.5s0.6-16,1.7-19.2c1-3,1.8-18,2-20.3c0-0.2,0-0.3,0-0.3l-0.1-1.4c0.1-1,0.1-2.1,0.1-3.3
	c0-5.4-0.6-12.3-0.6-13.4c0-0.2,0-0.3,0-0.6c0-2.3-0.2-13.9-10.1-18.3c-3.6-1.6-8-3.6-12.3-5.5c-1.1-9.4-3.6-18.8-3.4-28.3
	c0-1.4,0.1-2.9,0.3-4.3c0,0.4,0,0.8-0.1,1.3c0,0.9,0,1.8,0,2.8c0.4-11.9,4.9-23.8,4.4-35.5c0,1.1-0.1,2.3-0.2,3.4
	c0.2-3.9-0.2-7.9-1.2-11.7c-0.4-1.3-0.9-2.7-2-3.6c-1-0.7-2.2-1.2-3.5-1.4c-3-0.8-6.1-1.3-9.1-1.7c-0.5-1.4-1.2-2.8-2.1-4
	c-6.4-8.8-16-17.2-27.3-19.1c-5.7-1-12.2-0.2-16,3.9c-0.4,0.4-0.8,0.7-1.1,1.1c-2.1,2.5-3,5.7-5.1,8.2c-0.1,0.2-0.3,0.3-0.5,0.5
	c-4.2,3.7-10.6,4.5-15.3,7.8c-0.8,0.6-1.6,1.3-2.3,2c-1.9,1.8-3.5,3.9-5,6.1c-2.1,2.9-4.2,6-4.9,9.5c-1.3,7,3.4,13.6,4.3,20.7
	c2,15.7-15.5,29.7-12.2,45.2c0.9,3.8,2.8,7.3,5.6,10.1c-6.8,6.2-12.6,12.1-12.6,12.1v0.4h-1.1l0.1,1.3h-0.1l0.6,6.9l-0.6,10
	c0,0,0,0.1,0,0.3v0.1v0.3c0,0,0,0.1,0,0.3h0c0.2,3.7,1,16.9,1.9,19.7c1.1,3.2,1.6,19.2,1.6,19.2s1.2,22.6,2.3,25.6
	c1.1,3-0.5,13.8,5.3,16.4l0,0c1.7,1.3,3.7,2.1,5.8,2.4c-0.3,2.4-0.1,4.1,0.8,4.6c0.4,0.2,0.9,0.4,1.3,0.4c-0.4,0.6-0.7,1.2-1,1.8
	c-2.3-0.2-4.5-0.8-6.7-1.6c-6.2-2.5-26.6-8.3-32.6-4.2c-5.9,4-20.2,7.7-13.6,23.9c6.6,16.2,9.7,16.6,9.7,16.6c2,1.5,3.8,3.3,5.3,5.3
	c2,3,20.5,9.8,25.1,9.8c2,0,3.9,0.1,5.9,0.3c0,0-5,4.4-4.3,7c0.7,2.6-1.5,23-1.5,23s5.1,5.1,7.3-1.6l0.1,0.1
	c0.4,0.6,2.6,3.1,6.7-0.1c1.7-1.3,3.5-2.4,5.4-3.4l20-2.8c2.1-0.1,4.2-0.1,6.3,0c3.2,0.3,6.3-1.6,8.3-3.1c4.2,1.6,8.8,3.3,11,3.9
	c4.5,1.3,25.2,6.8,30,5.1c1-0.4,1.9-1,2.6-1.9l4.6,0.1l-2.2,0.4c0,0,4.2,0.1,9.9,0.1l-0.2,0.1l7.2-0.1c10.5,0.1,22.3,0.1,23.8-0.2
	c2.4-0.5,15-0.2,18.8,0h1c0,0,13.9-2.8,8.1-16.8c-4.4-10.8-17.9-13.9-23.9-14.8c1.7-0.3,3.1-0.6,4.1-0.7c4.2-0.6,12.3-4.4,13-5.8
	c0.7-1.3,7.5-5.1,9.2-7.2C694,267,699,251.7,694.9,240.4z M580,272l-0.7,0.2l-0.5,0.2l-0.9,0.9c-0.7-0.5-1.4-1-2.2-1.5
	C577.2,271.9,578.6,272,580,272z M640.6,289.9L640.6,289.9z"/>
<path class="st9" d="M620.6,205c0,0,9.7,25.4,15.3,22.9s4-13.3,5.1-16.3c1.1-3,2.2-25.4,2.2-25.4s0.5-15.9,1.6-19.1
	c1-3,1.8-17.9,1.9-20.2c0-0.2,0-0.3,0-0.3l-1-18.4l-5.9-1.5l-13.8,5.1l-1.9,10.9l-0.7,4.3l-0.3,1.8L620.6,205z"/>
<path class="st4" d="M623.8,200.8c0,0,9.3,7.6,12.1,8.3c2.8,0.7,4.5,6.6,4.5,6.6"/>
<path class="st9" d="M544.5,206.1c0,0-9.7,25.4-15.3,22.9s-4-13.3-5.1-16.3c-1.1-3-2.2-25.4-2.2-25.4s-0.5-15.9-1.6-19.1
	c-1-3-1.8-17.9-1.9-20.2c0-0.2,0-0.3,0-0.3l1.1-18.4l5.9-1.5l13.8,5.1l1.9,10.9l0.7,4.3l0.3,1.8L544.5,206.1z"/>
<rect x="586.1" y="70.1" class="st10" width="21.7" height="33.8"/>
<rect x="586.1" y="70.1" class="st4" width="21.7" height="33.8"/>
<path class="st11" d="M540.7,231.4c0,0-7.4,8.2-4.7,9.6s20.6,29.2,20.6,29.2s58.5,7.2,69.5-3.6c11-10.8,10.8-30.1,10.8-30.1
	s-8.9,1.9-9.8,0.9c-1-1-6.3-6-6.3-6S545.8,226.9,540.7,231.4z"/>
<path class="st12" d="M540.7,231.4c0,0-7.4,8.2-4.7,9.6s20.6,29.2,20.6,29.2s58.5,7.2,69.5-3.6c11-10.8,10.8-30.1,10.8-30.1
	s-8.9,1.9-9.8,0.9c-1-1-6.3-6-6.3-6S545.8,226.9,540.7,231.4z"/>
<path class="st9" d="M646,128.4l-19.1,15.3l-5.8,0.4l-2.1,0.2l-35.5,2.6l-36.9-2.7l-5.5-0.4l-7-0.5l-14.6-14
	c0,0,10.3-11.1,19.4-18.6c3.6-3,6.9-5.3,9.4-6.3l0.4-0.1c1.5-0.6,2.9-1.6,4-2.8c7.2-7.4,13.8-25.6,13.8-25.6s31.6-16.3,27.8,5.1
	S608.5,97,608.5,97l5.9,2.7l2.3,1.1l6,2.7l13.5,6.2C646.9,114.6,646,128.4,646,128.4z"/>
<circle class="st4" cx="582" cy="64.9" r="28.4"/>
<path class="st4" d="M646,148.6H518.5c0-0.2,0-0.3,0-0.3l1.1-18.4c0,0,10.3-11.1,19.4-18.6l80.1-3.2l3.7-3.9l13.5,6.2
	c10.6,4.9,9.7,18.6,9.7,18.6S647.4,145,646,148.6z"/>
<path class="st13" d="M646,148H518.5c0-0.2,0-0.3,0-0.3l1.1-18.4c0,0,10.3-11.1,19.4-18.6l80.1-3.2l3.7-3.9l13.5,6.2
	c10.6,4.9,9.7,18.6,9.7,18.6S647.4,144.3,646,148z"/>
<path class="st4" d="M561.6,96.3c0,0,20.1,25.6,46.9-0.5s3,58.4,3,58.4l-57.8,6.9L561.6,96.3z"/>
<path class="st13" d="M561.6,97.5c0,0,20.1,25.6,46.9-0.5s3,58.4,3,58.4l-57.8,6.9L561.6,97.5z"/>
<path class="st4" d="M616.8,102l2.1,32.5l2.3,10.8l1.7,8.3c0,0,4.4,63.6,3.2,66.7s0.6,5.7,0.9,7.4c0.3,1.7-0.3,5.9-0.1,7.8
	s0,2.8-4.9,2.1c-4.9-0.7-11.7-1.9-11.7-1.9s-17.2,1.3-23.1-0.8c-5.9-2.1-17.2-2.1-17.2-2.1s-17,0.4-22.5-0.2
	c-5.5-0.6-8.5,6.8-12.1,4.7c-3.6-2.1,4.2-22.7,6.8-28.6c2.5-5.9-3.4-21-3.4-21l7.6-42.3l1.7-9.6v-30.2l0.4-0.1
	c1.5-0.6,2.9-1.6,4-2.8l1.9,30.3l59.7,2.1V101"/>
<path class="st13" d="M616.8,100.8l2.1,32.5l2.3,10.8l1.7,8.3c0,0,4.4,63.6,3.2,66.7s0.6,5.7,0.9,7.4c0.3,1.7-0.3,5.9-0.1,7.8
	c0.2,1.9,0,2.8-4.9,2.1c-4.9-0.7-11.7-1.9-11.7-1.9s-17.2,1.3-23.1-0.8c-5.9-2.1-17.2-2.1-17.2-2.1s-17,0.4-22.5-0.2
	c-5.5-0.6-8.5,6.8-12.1,4.7c-3.6-2.1,4.2-22.7,6.8-28.6c2.5-5.9-3.4-21-3.4-21l7.6-42.3l1.7-9.6v-30.2l0.4-0.1
	c1.5-0.6,2.9-1.6,4-2.8l1.9,30.3l59.7,2.1V99.7"/>
<path class="st4" d="M623.6,33c-0.4-1.3-0.9-2.7-1.9-3.6c-1-0.7-2.1-1.2-3.4-1.4c-2.9-0.8-5.8-1.3-8.8-1.7c-0.4-1.4-1.1-2.7-1.9-4
	c-6.2-8.8-15.4-17.1-26.3-19c-5.7-1-12.3-0.1-15.9,4.4c-2,2.5-2.9,5.7-4.9,8.1c-3.9,4.7-10.9,5.3-15.8,8.9c-2.6,1.9-4.5,4.7-6.4,7.4
	c-2,2.9-4.1,5.9-4.7,9.4c-1.3,6.9,3.3,13.5,4.2,20.5c1.9,15.7-14.9,29.5-11.7,45c1.8,9,10.2,15.3,18.8,18.6c3,1.1,6.5,2.3,7.9,5.2
	c0.6,1.3,0.7,2.7,1.3,4c2,4.3,8.6,4.4,12.2,1.3s4.7-8.2,5.1-12.9c1.7-20.6-6.5-40.9-5.6-61.5c0.3-6.2,2-13.3,7.6-16.1
	c7.5-3.8,16.6,2.5,24.8,1.3c3.9,9.5,4.7,20,2.4,30.1c-1.3,5.5-3.6,10.8-3.8,16.5c-0.2,8.6,4.4,16.5,8.4,24.1c0.9,1.4,1.4,3,1.7,4.6
	c0.1,1.7-0.2,3.3-0.9,4.9c-2.3,6.1-6.2,11.8-6.6,18.3c-0.1,0.8,0,1.5,0.5,2.2c0.4,0.4,1,0.7,1.6,0.7c6.9,1.2,12.8-4.9,16.1-11
	c3.7-6.7,5.9-14.2,6.4-21.9c0.7-12.9-3.9-25.7-3.7-38.6C620.9,62,627.5,47.2,623.6,33z"/>
<path class="st10" d="M624.3,32.4c-0.4-1.3-0.9-2.7-1.9-3.6c-1-0.7-2.1-1.2-3.4-1.4c-2.9-0.8-5.8-1.3-8.8-1.7
	c-0.4-1.4-1.1-2.7-1.9-4C602,13,592.8,4.7,582,2.8c-5.7-1-12.3-0.1-15.9,4.4c-2,2.5-2.9,5.7-4.9,8.1c-3.9,4.7-10.9,5.3-15.8,8.9
	c-2.6,1.9-4.5,4.7-6.4,7.4c-2,2.9-4.1,5.9-4.7,9.4c-1.3,6.9,3.3,13.5,4.2,20.5c1.9,15.7-14.9,29.5-11.7,45
	c1.8,9,10.2,15.3,18.8,18.6c3,1.1,6.5,2.3,7.9,5.2c0.6,1.3,0.7,2.7,1.3,4c2,4.3,8.6,4.4,12.2,1.3c3.5-3.1,4.7-8.2,5.1-12.9
	c1.7-20.6-6.5-40.9-5.6-61.5c0.3-6.2,2-13.3,7.6-16.1c7.5-3.8,16.6,2.5,24.8,1.3c3.9,9.5,4.7,20,2.4,30.1
	c-1.3,5.5-3.6,10.8-3.8,16.5c-0.2,8.6,4.4,16.5,8.4,24.1c0.9,1.4,1.4,3,1.7,4.6c0.1,1.7-0.2,3.3-0.9,4.9c-2.3,6.1-6.2,11.8-6.6,18.3
	c-0.1,0.8,0,1.5,0.5,2.2c0.4,0.4,1,0.7,1.6,0.7c6.9,1.2,12.8-4.9,16.1-11c3.7-6.7,5.9-14.2,6.4-21.9c0.7-12.9-3.9-25.7-3.7-38.6
	C621.5,61.4,628.2,46.6,624.3,32.4z"/>
<polygon class="st14" points="610.2,313.8 635.4,314.6 631.8,295.9 612.5,297.7 "/>
<path class="st11" d="M688.3,269.5c-1.7,2.1-8.3,5.9-8.9,7.2c-0.6,1.3-8.5,5.1-12.5,5.7s-16.7,3.4-19.1,4.9
	c-1.7,1.1-15.1,4.4-23.9,6.3c-2.4,0.6-4.8,1-7.2,1.3c-3.8,0.2-45.5-14-45.5-14l8-8.3l0.4-0.2c2.3-0.8,12.8-4.3,18.6-6
	c6.6-1.9,14.2-9.7,14.2-9.7s11.2-3.8,12.7-4.2s-3.8-14.8-3.8-14.8s24.4-3.4,33.9-6.2s31.6-1.8,35.6,9.4S690.1,267.4,688.3,269.5z"/>
<path class="st13" d="M577.3,305.3c0,0-4.9,5.1-9.7,4.7s-21.9,1.3-21.9,1.3c-3.1,1.2-6,2.9-8.6,5c-4,3.1-6.1,0.6-6.5,0.1l-0.1-0.1
	c-2.1,6.7-7,1.6-7,1.6s2.1-20.3,1.5-22.9s4.2-6.9,4.2-6.9l5.7-1.5l14.5-3.7l20.8,7.2L577.3,305.3z"/>
<path class="st4" d="M534.9,286.5l-4.3,29.8l-0.1-0.1c-2.1,6.7-7,1.6-7,1.6s2.1-20.3,1.5-22.9s4.2-6.9,4.2-6.9L534.9,286.5z"/>
<path class="st4" d="M564.9,201.9c0,0,11.2,3.8,21,0"/>
<path class="st4" d="M603.2,209.1c0,0,4.7,2.3,8.3,0"/>
<path class="st4" d="M603.2,214.6c0,0,7.8,1,9.3-1.1"/>
<path class="st4" d="M600.6,226.5c0,0,14.7-1.9,18.4-4.4"/>
<path class="st4" d="M555.7,222c0,0,8.3,4.7,14.4,4.4"/>
<path class="st4" d="M624,293.6c-2.4,0.6-4.8,1-7.2,1.3c-3.8,0.2-45.5-14-45.5-14l8-8.3l0.4-0.2c1.3,0.9,2.3,1.7,3.1,2.2
	c3.5,2.8,6.9-0.8,8.2-0.8c1.3,0,12.3,9.1,12.3,9.1s10.2,2.3,11.9,4.4c1.7,2.1,7.6,1.7,8.7,3.2C624,291.1,624.1,292.2,624,293.6z"/>
<path class="st11" d="M545.7,238.5c0,0-10.3,0.6-16.2-1.9c-5.9-2.5-25.6-8.3-31.4-4.2c-5.7,4-19.5,7.6-13.1,23.7s9.3,16.5,9.3,16.5
	c2,1.5,3.7,3.3,5.1,5.3c1.9,3,19.7,9.7,24.2,9.7s12.3,0,23.3,7.6c11,7.6,21,8.5,21,8.5s14,5.7,18.3,7c4.4,1.3,24.2,6.8,28.9,5.1
	c4.7-1.7,7.6-12.3,7.6-12.3s2.1-9.5,1.1-11c-1.1-1.5-7-1.1-8.7-3.2c-1.7-2.1-11.9-4.4-11.9-4.4s-11-9.1-12.3-9.1
	c-1.3,0-4.7,3.6-8.2,0.8c-7-5.2-14.3-9.8-21.9-14C552.8,258.4,545.7,238.5,545.7,238.5z"/>
<path class="st4" d="M525,244.7c3.7-0.8,7.6,0.3,10.4,2.8c5.1,4.2,22.2,12.7,22.2,12.7"/>
<path class="st4" d="M652.1,244.4c0,0-22.7,3.4-26.9,8.1"/>
<path class="st13" d="M678.2,314.6h-1c-3.6-0.1-15.7-0.5-18.1,0c-2.8,0.6-39.2,0-39.2,0l7.1-1.5c0,0-2.6-9.3-1-10
	c0,0-9.5-6.3-2.3-10.5c7.2-4.2,14.9-2.5,14.9-2.5l18-6.1l3.5-1.2c0,0,20.3,1.1,25.8,15S678.2,314.6,678.2,314.6z"/>
<path class="st4" d="M678.2,314.6h-1c5.9-4.9,19.3-19.7-20.5-30.6l3.5-1.2c0,0,20.3,1.1,25.8,15
	C691.5,311.9,678.2,314.6,678.2,314.6z"/>
<circle class="st11" cx="640.8" cy="297" r="1.1"/>
<circle class="st11" cx="634.3" cy="298.8" r="1.1"/>
<g class="st15">
	<path d="M602.8,63.8c0.2-7-1-14-3.6-20.4c-8.3,1.2-17.3-5.1-24.8-1.3c-5.6,2.8-7.3,9.9-7.6,16.1c-0.1,1.6-0.1,3.3-0.1,4.9
		c0-0.6,0-1.2,0.1-1.8c0.3-6.2,2-13.3,7.6-16.1c7.5-3.8,16.6,2.5,24.8,1.3C601.4,52,602.7,57.9,602.8,63.8z"/>
	<path d="M538.8,62.6c0.1-1.4,0.1-2.8-0.1-4.2c-0.7-5.6-3.7-10.9-4.3-16.4c-0.7,6.6,3.5,12.9,4.3,19.6
		C538.8,62,538.8,62.3,538.8,62.6z"/>
	<path d="M572.3,119.7c-0.4,4.7-1.5,9.8-5.1,12.9c-3.6,3.1-10.2,3-12.2-1.3c-0.6-1.3-0.7-2.8-1.3-4c-1.4-2.9-4.9-4-7.9-5.2
		c-8.6-3.2-16.9-9.5-18.8-18.6c-0.2-0.8-0.3-1.6-0.3-2.5c-0.2,1.9,0,3.8,0.3,5.7c1.8,9,10.2,15.3,18.8,18.6c3,1.1,6.5,2.3,7.9,5.2
		c0.6,1.3,0.7,2.7,1.3,4c2,4.3,8.6,4.4,12.2,1.3c3.6-3.1,4.7-8.2,5.1-12.9c0.2-2.5,0.3-5,0.2-7.5
		C572.5,116.8,572.4,118.3,572.3,119.7z"/>
	<path d="M621.4,73.1c0,0.9,0,1.8,0,2.8c0.4-11.8,4.7-23.7,4.3-35.3C625.3,51.3,621.6,62.2,621.4,73.1z"/>
	<path d="M607.7,120.9c0.2-0.8,0.2-1.5,0.1-2.3c-0.3-1.6-0.8-3.2-1.7-4.6c-3.7-7-7.9-14.1-8.4-21.9c0,0.3,0,0.6-0.1,1
		c-0.3,8.6,4.4,16.5,8.4,24.1C606.9,118.4,607.4,119.6,607.7,120.9z"/>
	<path d="M625,111.7c-0.5,7.7-2.7,15.2-6.4,21.9c-3.4,6.1-9.3,12.2-16.2,11c-0.6-0.1-1.2-0.3-1.6-0.7c-0.1-0.1-0.2-0.3-0.3-0.5
		c-0.1,0.5-0.1,1-0.2,1.5c-0.1,0.8,0,1.5,0.5,2.2c0.4,0.4,1,0.7,1.6,0.7c6.9,1.2,12.8-4.9,16.2-11c3.7-6.7,5.9-14.2,6.4-21.9
		c0.1-1.5,0.1-3,0-4.4C625.1,110.9,625.1,111.3,625,111.7z"/>
</g>
<path class="st16" d="M626.1,303.1c0,0,16.1,6.7,26.7-8.2"/>
<path class="st16" d="M629.2,314.9c0,0,13.1-8.5,29.9-0.3"/>
<path class="st16" d="M541.3,312.9c0,0,5.5-12.4,20.2-3"/>
<path class="st4" d="M523.4,128.9l11.2-10.2c0,0,43.6-2.9,45.4,12c0,0,15.5-17.6,48-13.7l13.8,11l-38,16.7l-37,12.8l-27.2-12.2
	L523.4,128.9z"/>
<path class="st3" d="M523.4,129.5l11.2-10.2c0,0,43.6-2.9,45.4,12c0,0,15.5-17.6,48-13.7l13.8,11l-38,16.7l-37,12.8L539.6,146
	L523.4,129.5z"/>
<polygon class="st4" points="518.4,130.8 523.4,190.3 576.2,193 573.9,133.7 573.8,132.7 "/>
<polygon class="st1" points="518.4,129.5 523.4,189.1 576.2,191.7 573.9,132.4 573.8,131.4 "/>
<polygon class="st4" points="644.3,129.5 589.8,137.7 589.8,197.5 643,189.8 "/>
<polygon class="st1" points="644.3,128.3 589.8,136.4 589.8,196.2 643,188.5 "/>
<polygon class="st5" points="631.4,142.9 602,146.1 602.7,156.1 631.4,153 "/>
<path class="st9" d="M526.3,220.9l3,8.1c0,0,4.4,3.8,9.3,1.9c4.9-1.9,9.1-2.9,11.2-4.7c2.1-1.9,5.1-11.2,5.1-11.2s3-10.2,5.9-12.7
	c3-2.5,10.8-37.6,0-34.1c-10.8,3.4-19.1,35.2-19.1,35.2s-1.9,2.3-4.7,2.5s-8.3-0.4-9.3,1.9C526.7,210.2,523.1,216.3,526.3,220.9z"/>
<path class="st4" d="M589.8,137.7c-5.6,1.3-11.6-0.2-16-4l2.3,59.3c0,0,5.4,5.8,13.7,4.5V137.7z"/>
<path class="st1" d="M589.8,136.4c-5.6,1.3-11.6-0.2-16-4l2.3,59.3c0,0,5.4,5.8,13.7,4.5V136.4z"/>
<path class="st4" d="M589.8,136.4c-5.6,1.3-11.6-0.2-16-4l2.3,59.3c0,0,5.4,5.8,13.7,4.5V136.4z"/>
<path class="st4" d="M591.1,129.7c0,0,22.1-6.8,27.9-5.8"/>
<path class="st4" d="M566.3,126.8c0,0-21.5-5.1-25-3.6"/>
<path class="st4" d="M605.1,130.6c0,0,14.8-5.4,20.2-2.8"/>
<path class="st4" d="M597.6,266.7c2.3-1.7,4.7-3.2,7.3-4.5c3.8-1.8,10.8-6.6,10.8-6.6"/>
<path class="st4" d="M541.3,201.9c0,0-9.3,7.6-12.1,8.3s-4.5,6.6-4.5,6.6"/>
<path class="st9" d="M638.8,219.8l-3,8.1c0,0-4.4,3.8-9.3,1.9c-4.9-1.9-9.1-2.9-11.2-4.7c-2.1-1.9-5.1-11.2-5.1-11.2
	s-3-10.2-5.9-12.7s-10.8-37.6,0-34.1c10.8,3.4,19.1,35.2,19.1,35.2s1.9,2.3,4.7,2.5c2.8,0.2,8.3-0.4,9.3,1.9S642,215.2,638.8,219.8z
	"/>
<path class="st4" d="M633.6,205c0,0,6.1,3.9,6,8.6"/>
<circle class="st9" cx="582.1" cy="63.5" r="28.4"/>
<path class="st10" d="M564.3,55.8c3.4-0.5,6.5-2.5,9.8-3.7c7.4-2.6,15.5-0.8,23,1.5c2.9,0.9,5.8,1.9,8.8,1.9s6.2-1.2,7.7-3.8
	c1.4-2.4,1.1-5.5-0.1-8c-1.2-2.5-3.2-4.5-5.2-6.4c-6.6-6.2-14.8-12.1-23.9-11.4c-3.6,0.3-7.1,1.6-10.5,3c-4.2,1.8-8.3,3.9-12.3,6.2
	c-3.1,1.8-8.7,4.1-10.5,7.4C547.1,49.9,558,56.8,564.3,55.8z"/>
<path class="st4" d="M613.5,49.1c-1.5,2.6-4.7,3.8-7.7,3.8c-3,0-5.9-1-8.8-1.9c-7.5-2.3-15.6-4.1-23-1.5c-3.3,1.2-6.3,3.2-9.8,3.7
	c-5,0.8-13.1-3.6-14-9.1c-1,6.4,8.4,11.9,14,11.1c3.4-0.5,6.5-2.5,9.8-3.7c7.4-2.6,15.5-0.8,23,1.5c2.9,0.9,5.8,1.9,8.8,1.9
	c3,0,6.2-1.2,7.7-3.8c0.8-1.4,1.1-3,0.9-4.6C614.3,47.3,614,48.3,613.5,49.1z"/>
<path class="st1" d="M843.9,393.5c0,0,3.8,4.9-1.7,12.4c-5.5,7.4-10,13.7-8.2,18.4c0,0,8.3-13.8,15.1-14
	C855.8,410.1,851.3,401.8,843.9,393.5z"/>
<path class="st4" d="M843.9,393.5c0.3,0.5,0.6,1,0.8,1.5c6.6,7.8,10.1,15,3.8,15.2c-5.9,0.2-13,10.7-14.7,13.4
	c0.1,0.2,0.1,0.4,0.2,0.6c0,0,8.3-13.8,15.1-14C855.8,410.1,851.3,401.8,843.9,393.5z"/>
<path class="st17" d="M850.9,399.8c0,1.7-0.2,3.1-0.4,3.1s-0.4-1.4-0.4-3.1c0-1.7,0.2-0.9,0.5-0.9S850.9,398.1,850.9,399.8z"/>
<path class="st17" d="M853.3,401.9c-1.5,0.8-2.8,1.3-3,1.1s1-1.1,2.5-1.9s0.9-0.2,1,0S854.8,401.1,853.3,401.9z"/>
<path class="st1" d="M824,393.5c0,0-3.8,4.9,1.7,12.4c5.5,7.4,10,13.7,8.2,18.4c0,0-8.3-13.8-15.1-14
	C812.1,410.1,816.6,401.8,824,393.5z"/>
<path class="st4" d="M824,393.5c-0.3,0.5-0.6,1-0.8,1.5c-6.6,7.8-10.1,15-3.8,15.2c5.9,0.2,13,10.7,14.7,13.4
	c-0.1,0.2-0.1,0.4-0.2,0.6c0,0-8.3-13.8-15.1-14C812.1,410.1,816.6,401.8,824,393.5z"/>
<path class="st17" d="M817,399.8c0,1.7,0.2,3.1,0.4,3.1s0.4-1.4,0.4-3.1c0-1.7-0.2-0.9-0.5-0.9C817.1,398.9,817,398.1,817,399.8z"/>
<path class="st17" d="M814.6,401.9c1.5,0.8,2.8,1.3,3,1.1c0.1-0.2-1-1.1-2.5-1.9s-0.9-0.2-1,0C813.8,401.3,813,401.1,814.6,401.9z"
	/>
<ellipse class="st0" cx="833.9" cy="455.9" rx="39.4" ry="6"/>
<path class="st18" d="M854.2,417.6l-0.2,1.5l-0.3,2.2l-0.1,0.9l-0.3,2.2l-0.1,0.9l-0.3,2.2l-3,24.7c-0.3,2.2-3.9,3.9-8.2,3.9h-15.7
	c-4.4,0-8-1.7-8.2-3.9l-3-24.7l-0.3-2.2l-0.1-0.9l-0.3-2.2l-0.1-0.9l-0.3-2.2l-0.2-1.5c-0.1-1.3,1.8-2.3,4.3-2.3h32
	C852.4,415.3,854.4,416.4,854.2,417.6z"/>
<polygon class="st19" points="854,419.2 853.8,421.3 814.1,421.3 813.8,419.2 "/>
<polygon class="st19" points="853.6,422.2 853.4,424.4 814.5,424.4 814.2,422.2 "/>
<polygon class="st19" points="853.3,425.3 853,427.5 814.8,427.5 814.6,425.3 "/>
</svg>
