<?xml version="1.0" encoding="UTF-8"?>
<!DOCTYPE svg PUBLIC "-//W3C//DTD SVG 1.1//EN" "http://www.w3.org/Graphics/SVG/1.1/DTD/svg11.dtd">
<!-- Creator: CorelDRAW 2018 (64 Bit Versão de avaliação) -->
<svg xmlns="http://www.w3.org/2000/svg" xml:space="preserve" width="70.5mm" height="53.5mm" version="1.1" style="shape-rendering:geometricPrecision; text-rendering:geometricPrecision; image-rendering:optimizeQuality; fill-rule:evenodd; clip-rule:evenodd"
viewBox="0 0 7050 5350"
 xmlns:xlink="http://www.w3.org/1999/xlink">
 <defs>
  <style type="text/css">
   <![CDATA[
    .str0 {stroke:#000E42;stroke-width:65.83;stroke-miterlimit:22.9256}
    .fil2 {fill:none}
    .fil0 {fill:#FEFEFE}
    .fil1 {fill:#000E42}
   ]]>
  </style>
 </defs>
 <g id="Camada_x0020_1">
  <metadata id="CorelCorpID_0Corel-Layer"/>
  <rect class="fil0" x="2837.09" y="1987.09" width="1375.83" height="1375.83" rx="240" ry="240"/>
  <g id="_2742468291792">
   <path class="fil1" d="M3307.44 2177.25c-155.54,12.78 -249.12,87.07 -274.81,229.92 -18.24,101.47 -13.44,379.24 -5.34,489.82 11.01,150.37 92.17,245.95 231.51,270.32 106.83,18.69 376.46,14.04 492.75,4.86 146.71,-11.59 242.86,-93.99 265.96,-231.21 18.25,-108.42 13.2,-373.71 4.96,-489.4 -10.83,-151.99 -93.54,-243.58 -231.22,-269.16 -97.15,-18.05 -378.66,-13.79 -483.81,-5.15zm-18.65 91.43c-136.41,20.18 -170.33,95.25 -175.38,237.84 -3.9,110.35 -9.37,306.56 5.13,409.8 18.53,131.97 100.57,165.44 239.26,169.95 110.4,3.59 306.31,9.39 408.95,-5.27 129.31,-18.46 165.5,-102.6 169.51,-239.21 3.31,-112.89 9.79,-304.56 -5.01,-409.4 -18.24,-129.27 -102.8,-165.17 -238.16,-168.97 -111.87,-3.15 -300.07,-10.16 -404.3,5.26z"/>
   <path class="fil2 str0" d="M3494.25 2439.31c-353.1,53.93 -260.98,556.69 67.04,508.92 128.5,-18.71 241.69,-140.36 218.15,-291.04 -19.09,-122.21 -136.17,-240.64 -285.19,-217.88z"/>
   <path class="fil1" d="M3771.61 2352.27c-72.95,30.32 -31.59,139.58 45.76,108.41 67.57,-27.22 26.83,-138.58 -45.76,-108.41z"/>
  </g>
 </g>
</svg>
