<?xml version="1.0" encoding="UTF-8"?>
<!DOCTYPE svg PUBLIC "-//W3C//DTD SVG 1.1//EN" "http://www.w3.org/Graphics/SVG/1.1/DTD/svg11.dtd">
<!-- Creator: CorelDRAW 2018 (64 Bit Versão de avaliação) -->
<svg xmlns="http://www.w3.org/2000/svg" xml:space="preserve" width="70.5mm" height="53.5mm" version="1.1" style="shape-rendering:geometricPrecision; text-rendering:geometricPrecision; image-rendering:optimizeQuality; fill-rule:evenodd; clip-rule:evenodd"
viewBox="0 0 7050 5350"
 xmlns:xlink="http://www.w3.org/1999/xlink">
 <defs>
  <style type="text/css">
   <![CDATA[
    .fil0 {fill:#FEFEFE}
    .fil1 {fill:#000E42}
   ]]>
  </style>
 </defs>
 <g id="Camada_x0020_1">
  <metadata id="CorelCorpID_0Corel-Layer"/>
  <rect class="fil0" x="2837.09" y="1987.09" width="1375.83" height="1375.83" rx="240" ry="240"/>
  <g id="_2742464235984">
   <path class="fil1" d="M3056.73 3143.5c112.45,-18.96 221.28,-94.98 279.33,-66.59 371.67,181.8 782.56,-205.34 621.11,-587.99 -74.41,-176.34 -264.82,-302.33 -461.86,-279.81 -356.32,40.73 -508.77,397.05 -378.88,649.53 26.78,52.04 21.83,39.6 3.01,97.04 -20.69,63.13 -46.38,126.51 -62.71,187.82zm114.44 -110.53c31.13,-7.65 131.53,-47.67 155.81,-40.83 28.45,8.03 56.31,40.64 148.85,54.01 370.17,53.47 598.29,-399.61 325.28,-658.64 -269.76,-255.94 -713.88,-26.22 -651.51,344.67 11.7,69.54 32.64,92.79 58.47,144.76 17.42,35.05 -32.79,111.65 -36.9,156.03z"/>
   <path class="fil1" d="M3817.35 2791.88c-168.8,-83.24 -126.86,-74.01 -188.9,-5.98 -23.42,25.69 -32.89,16.33 -66.58,-0.48 -58.96,-29.42 -84.04,-55.05 -119.88,-93.57 -82.86,-89.05 -23.69,-85.57 -5.63,-126.48 13.76,-31.16 -37.98,-133.64 -52.34,-154.21 -124.44,-19.89 -144.22,109.94 -117.9,188.44 24.96,74.48 100.98,155.7 143.03,196.33 67.64,65.34 244.47,175.13 351.58,111.1 38.75,-23.16 62.01,-45.99 56.62,-115.15z"/>
  </g>
 </g>
</svg>
